<svg width="188" height="45" viewBox="0 0 188 45" fill="none" xmlns="http://www.w3.org/2000/svg">
<path d="M34.1422 7.85781C30.3647 4.08031 25.3422 2 20 2C14.6578 2 9.63531 4.08031 5.85781 7.85781C2.08031 11.6353 0 16.6578 0 22C0 27.3422 2.08039 32.3646 5.85781 36.1422C9.63523 39.9198 14.6578 42 20 42C25.3422 42 30.3647 39.9197 34.1422 36.1422C37.9197 32.3647 40 27.3422 40 22C40 16.6578 37.9196 11.6354 34.1422 7.85781Z" fill="#33CC95"/>
<g clip-path="url(#clip0_35212_417)">
<path d="M20.5714 10V35.1429" stroke="white" stroke-width="2" stroke-linecap="round" stroke-linejoin="round"/>
<path d="M26.2857 14.5714H17.7143C16.6534 14.5714 15.636 14.9929 14.8859 15.743C14.1357 16.4931 13.7143 17.5106 13.7143 18.5714C13.7143 19.6323 14.1357 20.6497 14.8859 21.3999C15.636 22.15 16.6534 22.5714 17.7143 22.5714H23.4286C24.4894 22.5714 25.5069 22.9929 26.257 23.743C27.0072 24.4932 27.4286 25.5106 27.4286 26.5714C27.4286 27.6323 27.0072 28.6497 26.257 29.3999C25.5069 30.15 24.4894 30.5714 23.4286 30.5714H13.7143" stroke="white" stroke-width="2" stroke-linecap="round" stroke-linejoin="round"/>
</g>
<path d="M120.512 16.024C122.144 16.024 123.456 16.528 124.448 17.536C125.456 18.528 125.96 19.92 125.96 21.712V29.512H122.6V22.168C122.6 21.128 122.336 20.336 121.808 19.792C121.28 19.232 120.56 18.952 119.648 18.952C118.736 18.952 118.008 19.232 117.464 19.792C116.936 20.336 116.672 21.128 116.672 22.168V29.512H113.312V22.168C113.312 21.128 113.048 20.336 112.52 19.792C111.992 19.232 111.272 18.952 110.36 18.952C109.432 18.952 108.696 19.232 108.152 19.792C107.624 20.336 107.36 21.128 107.36 22.168V29.512H104V16.216H107.36V17.824C107.792 17.264 108.344 16.824 109.016 16.504C109.704 16.184 110.456 16.024 111.272 16.024C112.312 16.024 113.24 16.248 114.056 16.696C114.872 17.128 115.504 17.752 115.952 18.568C116.384 17.8 117.008 17.184 117.824 16.72C118.656 16.256 119.552 16.024 120.512 16.024Z" fill="white"/>
<path d="M135.052 29.728C133.772 29.728 132.62 29.448 131.596 28.888C130.572 28.312 129.764 27.504 129.172 26.464C128.596 25.424 128.308 24.224 128.308 22.864C128.308 21.504 128.604 20.304 129.196 19.264C129.804 18.224 130.628 17.424 131.668 16.864C132.708 16.288 133.868 16 135.148 16C136.428 16 137.588 16.288 138.628 16.864C139.668 17.424 140.484 18.224 141.076 19.264C141.684 20.304 141.988 21.504 141.988 22.864C141.988 24.224 141.676 25.424 141.052 26.464C140.444 27.504 139.612 28.312 138.556 28.888C137.516 29.448 136.348 29.728 135.052 29.728ZM135.052 26.8C135.66 26.8 136.228 26.656 136.756 26.368C137.3 26.064 137.732 25.616 138.052 25.024C138.372 24.432 138.532 23.712 138.532 22.864C138.532 21.6 138.196 20.632 137.524 19.96C136.868 19.272 136.06 18.928 135.1 18.928C134.14 18.928 133.332 19.272 132.676 19.96C132.036 20.632 131.716 21.6 131.716 22.864C131.716 24.128 132.028 25.104 132.652 25.792C133.292 26.464 134.092 26.8 135.052 26.8Z" fill="white"/>
<path d="M151.821 16.024C153.405 16.024 154.685 16.528 155.661 17.536C156.637 18.528 157.125 19.92 157.125 21.712V29.512H153.765V22.168C153.765 21.112 153.501 20.304 152.973 19.744C152.445 19.168 151.725 18.88 150.813 18.88C149.885 18.88 149.149 19.168 148.605 19.744C148.077 20.304 147.813 21.112 147.813 22.168V29.512H144.453V16.216H147.813V17.872C148.261 17.296 148.829 16.848 149.517 16.528C150.221 16.192 150.989 16.024 151.821 16.024Z" fill="white"/>
<path d="M172.68 22.576C172.68 23.056 172.648 23.488 172.584 23.872H162.864C162.944 24.832 163.28 25.584 163.872 26.128C164.464 26.672 165.192 26.944 166.056 26.944C167.304 26.944 168.192 26.408 168.72 25.336H172.344C171.96 26.616 171.224 27.672 170.136 28.504C169.048 29.32 167.712 29.728 166.128 29.728C164.848 29.728 163.696 29.448 162.672 28.888C161.664 28.312 160.872 27.504 160.296 26.464C159.736 25.424 159.456 24.224 159.456 22.864C159.456 21.488 159.736 20.28 160.296 19.24C160.856 18.2 161.64 17.4 162.648 16.84C163.656 16.28 164.816 16 166.128 16C167.392 16 168.52 16.272 169.512 16.816C170.52 17.36 171.296 18.136 171.84 19.144C172.4 20.136 172.68 21.28 172.68 22.576ZM169.2 21.616C169.184 20.752 168.872 20.064 168.264 19.552C167.656 19.024 166.912 18.76 166.032 18.76C165.2 18.76 164.496 19.016 163.92 19.528C163.36 20.024 163.016 20.72 162.888 21.616H169.2Z" fill="white"/>
<path d="M187.853 16.216L179.621 35.8H176.045L178.925 29.176L173.597 16.216H177.365L180.797 25.504L184.277 16.216H187.853Z" fill="white"/>
<path d="M68.4731 29.67H75.3731V33H64.2731V12.06H68.4731V29.67ZM77.0227 22.5C77.0227 20.44 77.4827 18.6 78.4027 16.98C79.3427 15.34 80.6127 14.07 82.2127 13.17C83.8327 12.25 85.6427 11.79 87.6427 11.79C89.9827 11.79 92.0327 12.39 93.7927 13.59C95.5527 14.79 96.7827 16.45 97.4827 18.57H92.6527C92.1727 17.57 91.4927 16.82 90.6127 16.32C89.7527 15.82 88.7527 15.57 87.6127 15.57C86.3927 15.57 85.3027 15.86 84.3427 16.44C83.4027 17 82.6627 17.8 82.1227 18.84C81.6027 19.88 81.3427 21.1 81.3427 22.5C81.3427 23.88 81.6027 25.1 82.1227 26.16C82.6627 27.2 83.4027 28.01 84.3427 28.59C85.3027 29.15 86.3927 29.43 87.6127 29.43C88.7527 29.43 89.7527 29.18 90.6127 28.68C91.4927 28.16 92.1727 27.4 92.6527 26.4H97.4827C96.7827 28.54 95.5527 30.21 93.7927 31.41C92.0527 32.59 90.0027 33.18 87.6427 33.18C85.6427 33.18 83.8327 32.73 82.2127 31.83C80.6127 30.91 79.3427 29.64 78.4027 28.02C77.4827 26.4 77.0227 24.56 77.0227 22.5Z" fill="white"/>
<defs>
<clipPath id="clip0_35212_417">
<rect width="27.4286" height="27.4286" fill="white" transform="translate(6.85715 8.85714)"/>
</clipPath>
</defs>
</svg>
